<?xml version="1.0" encoding="utf-8"?>
<!-- Generator: Adobe Illustrator 21.0.0, SVG Export Plug-In . SVG Version: 6.00 Build 0)  -->
<svg version="1.1" id="Layer_1" xmlns="http://www.w3.org/2000/svg" xmlns:xlink="http://www.w3.org/1999/xlink" x="0px" y="0px"
	 width="264px" height="88px" viewBox="0 0 264 88" enable-background="new 0 0 264 88" xml:space="preserve">
<g>
	<polygon fill="#FFFFFF" points="71,68 71,73 59,73 59,61 64,61 64,59 57,59 57,75 73,75 73,68 	"/>
	<polygon fill="#FFFFFF" points="67,59 67,61 69.6,61 63.2,67.4 64.6,68.8 71,62.4 71,65 73,65 73,59 	"/>
</g>
<g>
	<path id="Shape_1_" fill="#FFFFFF" d="M13,29v-5h2v3h3v2H13z M13,15h5v2h-3v3h-2V15z M31,15v5h-2v-3h-3v-2H31z M31,29h-5v-2h3v-3h2
		V29z"/>
</g>
<g>
	<path fill="#FFFFFF" d="M62,24v5h-2v-3h-3v-2H62z M62,20h-5v-2h3v-3h2V20z M70,20v-5h2v3h3v2H70z M70,24h5v2h-3v3h-2V24z"/>
</g>
<path fill="#FFFFFF" d="M19.6,66L14,60.4l1.4-1.4l5.6,5.6l5.6-5.6l1.4,1.4L22.4,66l5.6,5.6L26.6,73L21,67.4L15.4,73L14,71.6L19.6,66
	z"/>
<path fill="#FFFFFF" d="M111.8,65l-1.8-1.5l3-3.5h-10v-2h10l-3-3.5l1.8-1.5l5.2,6L111.8,65z"/>
<path fill="#FFFFFF" d="M152.2,65l1.8-1.5l-3-3.5h10v-2h-10l3-3.5l-1.8-1.5l-5.2,6L152.2,65z"/>
<g>
	<path id="Rectangle-11" fill="#FFFFFF" d="M161,28.5l-3.3-3.3l-1.4,1.4l3.3,3.3L161,28.5z"/>
	<path id="Oval-1" fill="none" stroke="#FFFFFF" stroke-width="1.5" d="M152.5,27c3,0,5.5-2.5,5.5-5.5s-2.5-5.5-5.5-5.5
		s-5.5,2.5-5.5,5.5S149.5,27,152.5,27z"/>
	<path fill="#FFFFFF" d="M150,21h5v1h-5V21z"/>
</g>
<g>
	<path fill="#FFFFFF" d="M117,28.5l-1.4,1.4l-3.3-3.3l1.4-1.4L117,28.5z"/>
	<path fill="none" stroke="#FFFFFF" stroke-width="1.5" d="M108.5,27c3,0,5.5-2.5,5.5-5.5s-2.5-5.5-5.5-5.5s-5.5,2.5-5.5,5.5
		S105.5,27,108.5,27z"/>
	<path fill="#FFFFFF" d="M106,21h5v1h-5V21z"/>
	<path fill="#FFFFFF" d="M109,19l-0.1,5l-0.9,0l0.1-5L109,19z"/>
</g>
</svg>
